:SAMPLES-PER-SECOND 30
:FULLY-SPECIFIED
:DEGREES
138
root  3.25547 39.6375 -6.73435 171.029 87.1131 176.417
RightUpLeg  3.7849 -11.555 -0.562104
RightLeg  20.4138 -4.18119 1.61384
RightFoot  -16.4723 -0.383993 -6.07269
RightToes  0.00048216 0.542163 -0.142577
Spine  9.01649 2.13761 11.5336
Spine1  8.60901 4.46036 -2.98948
HEad  -10.5511 -9.27818 -1.17561
LeftShoulder1  7.86653 -12.0743 -43.955
LeftArm  -10.4882 27.0441 -28.5384
LeftForeArm  29.682 -31.4639 -5.23063
LeftHand  -0.25398 0.0180481 5.50724
RightShoulder  5.03613 8.82183 34.8998
RightArm  7.12104 -16.29 32.2053
RightForeArm  142.251 73.592 142.756
RightHand  -2.71736 7.91235 -23.8085
LeftUpLeg  -22.0832 2.41217 0.334312
LeftLeg  45.4961 2.84648 3.49266
LeftFoot  4.21368 0.334797 -2.62841
LeftToes  1.06246e-005 4.65856e-005 -8.18502e-006
139
root  4.86567 39.5968 -6.68831 145.202 88.4768 150.207
RightUpLeg  7.09243 -10.795 -1.48108
RightLeg  18.4212 -3.15793 2.55365
RightFoot  -17.5024 -0.449803 -6.14871
RightToes  0.00048216 0.542163 -0.142577
Spine  8.49627 2.65753 11.8283
Spine1  9.04279 5.17111 -4.60087
HEad  -11.1783 -8.81263 -1.37158
LeftShoulder1  7.88993 -12.0901 -44.0455
LeftArm  -9.55469 27.6653 -28.1228
LeftForeArm  28.9837 -28.8794 -4.66923
LeftHand  -0.25398 0.0180481 5.50724
RightShoulder  5.11303 9.02605 34.8485
RightArm  8.57607 -14.4905 31.9487
RightForeArm  142.475 73.7856 142.341
RightHand  -2.6493 7.81375 -23.4013
LeftUpLeg  -21.797 4.4578 -0.336789
LeftLeg  31.6658 1.88715 1.85648
LeftFoot  2.94065 0.333977 -2.79691
LeftToes  1.06246e-005 4.65856e-005 -8.18502e-006
140
root  6.47305 39.5602 -6.64147 71.0849 88.8211 75.548
RightUpLeg  10.3203 -10.1262 -2.51412
RightLeg  15.9773 -1.57173 3.06319
RightFoot  -18.2091 -0.479448 -5.94362
RightToes  0.00048216 0.542163 -0.142577
Spine  7.91496 3.23519 11.4696
Spine1  9.50721 5.90661 -6.05876
HEad  -11.6122 -8.08502 -1.49152
LeftShoulder1  7.88914 -12.0432 -44.1804
LeftArm  -7.60268 28.3381 -27.8384
LeftForeArm  27.408 -25.6887 -4.04378
LeftHand  -0.25398 0.0180481 5.50724
RightShoulder  5.15782 9.14481 34.8198
RightArm  10.1824 -12.8575 31.7919
RightForeArm  142.1 74.0286 141.687
RightHand  -2.50986 7.3977 -22.9093
LeftUpLeg  -20.3166 5.99291 -0.807685
LeftLeg  15.735 0.17337 -0.491923
LeftFoot  2.21587 0.28265 -2.49841
LeftToes  1.06246e-005 4.65856e-005 -8.18502e-006
141
root  8.11874 39.3826 -6.63422 28.9397 87.0828 33.2504
RightUpLeg  13.4619 -10.2078 -4.12162
RightLeg  14.7736 1.11958 3.37229
RightFoot  -19.4303 -0.465268 -4.73719
RightToes  0.00048216 0.542163 -0.142577
Spine  8.03577 3.53671 10.9229
Spine1  9.52752 6.53 -7.37239
HEad  -11.794 -7.02858 -1.35477
LeftShoulder1  7.78316 -11.8424 -44.1545
LeftArm  -5.96138 29.3252 -27.796
LeftForeArm  26.5859 -22.4551 -3.57066
LeftHand  -0.25398 0.0180481 5.50724
RightShoulder  5.19935 9.21348 34.9246
RightArm  11.9803 -11.4435 31.8209
RightForeArm  141.06 74.3668 140.645
RightHand  -2.40911 7.0029 -22.6931
LeftUpLeg  -18.0404 2.87821 0.982932
LeftLeg  1.73422 5.19225 -3.51306
LeftFoot  0.556522 0.43394 -4.25201
LeftToes  1.06246e-005 4.65856e-005 -8.18502e-006
142
root  9.85424 39.062 -6.70426 22.9341 85.6994 27.4211
RightUpLeg  16.3638 -10.9992 -6.04038
RightLeg  15.3267 4.18724 3.55086
RightFoot  -20.664 -0.400236 -3.18118
RightToes  0.00048216 0.542163 -0.142577
Spine  8.36013 3.39885 10.6765
Spine1  9.26654 6.70119 -8.50882
HEad  -11.9316 -5.85324 -0.942917
LeftShoulder1  7.63239 -11.6278 -43.9003
LeftArm  -6.35304 30.6119 -27.9696
LeftForeArm  28.2939 -19.5492 -3.64666
LeftHand  -0.25398 0.0180481 5.50724
RightShoulder  5.24374 9.26801 35.0948
RightArm  13.6208 -10.4331 32.2055
RightForeArm  140.625 74.73 139.604
RightHand  -2.3676 6.88664 -22.5185
LeftUpLeg  -16.9719 1.65681 1.50984
LeftLeg  -4.77354 11.5869 -5.93023
LeftFoot  -1.99174 0.471083 -5.50454
LeftToes  1.06246e-005 4.65856e-005 -8.18502e-006
143
root  11.6728 38.7402 -6.8099 25.2028 85.0239 29.7404
RightUpLeg  18.8582 -11.7141 -8.04855
RightLeg  16.6921 6.46024 3.36961
RightFoot  -21.1334 -0.264464 -1.437
RightToes  0.00048216 0.542163 -0.142577
Spine  8.28022 3.03595 9.90917
Spine1  9.32979 6.5235 -9.10702
HEad  -12.1829 -4.9882 -0.416963
LeftShoulder1  7.56773 -11.5756 -43.6671
LeftArm  -7.56173 31.9114 -28.1641
LeftForeArm  31.2056 -17.0663 -3.90079
LeftHand  -0.25398 0.0180481 5.50724
RightShoulder  5.26348 9.29243 35.1694
RightArm  14.6827 -10.3989 32.8151
RightForeArm  141.84 74.8234 139.581
RightHand  -2.32506 6.89384 -22.1185
LeftUpLeg  -17.6893 1.64686 0.223069
LeftLeg  -2.84407 16.5778 -6.32034
LeftFoot  -1.96594 0.263167 -3.20634
LeftToes  1.06246e-005 4.65856e-005 -8.18502e-006
144
root  13.6122 38.3788 -6.91278 29.7922 84.344 34.5417
RightUpLeg  20.9164 -11.4539 -10.0889
RightLeg  19.3005 8.01886 3.24664
RightFoot  -21.2754 0.0248215 1.89608
RightToes  0.00048216 0.542163 -0.142577
Spine  7.95129 3.03826 8.23046
Spine1  9.42352 6.31181 -8.67835
HEad  -12.3767 -4.60771 0.196768
LeftShoulder1  7.59796 -11.6149 -43.7308
LeftArm  -8.20786 32.9474 -28.0436
LeftForeArm  33.5445 -14.8319 -4.21263
LeftHand  -0.25398 0.0180481 5.50724
RightShoulder  5.26316 9.28165 35.201
RightArm  15.068 -11.7452 33.4094
RightForeArm  143.843 74.6266 140.491
RightHand  -2.28362 6.87841 -21.7672
LeftUpLeg  -19.2404 2.63741 -2.15896
LeftLeg  4.18987 16.2 -3.9288
LeftFoot  2.58166 -0.129738 0.840229
LeftToes  1.06246e-005 4.65856e-005 -8.18502e-006
145
root  15.5927 38.0664 -6.98978 35.4205 83.1417 40.7796
RightUpLeg  21.7988 -9.40049 -12.1494
RightLeg  24.1162 8.07315 3.67369
RightFoot  -19.3353 0.341545 7.07207
RightToes  0.00048216 0.542163 -0.142577
Spine  7.99263 3.4012 5.55803
Spine1  9.11245 6.15966 -7.61603
HEad  -12.1462 -4.56491 1.00966
LeftShoulder1  7.63397 -11.5922 -44.0185
LeftArm  -8.49225 33.5247 -27.503
LeftForeArm  34.6326 -12.604 -4.56485
LeftHand  -0.25398 0.0180481 5.50724
RightShoulder  5.28174 9.26186 35.4065
RightArm  14.776 -14.2365 34.1751
RightForeArm  145.14 74.6022 140.799
RightHand  -2.26968 6.88251 -21.6329
LeftUpLeg  -20.4418 8.88476 -6.74302
LeftLeg  11.6439 6.60542 -0.849389
LeftFoot  7.66473 -0.711349 4.0286
LeftToes  1.06246e-005 4.65856e-005 -8.18502e-006
146
root  17.4852 37.98 -7.06396 41.7109 81.5827 47.6941
RightUpLeg  19.784 -6.71942 -14.067
RightLeg  32.3374 6.11912 3.8739
RightFoot  -11.5984 -0.0493977 10.9395
RightToes  0.00048216 0.542163 -0.142577
Spine  8.41699 3.60352 2.72633
Spine1  8.44773 5.98538 -6.99492
HEad  -11.3975 -4.62312 1.85372
LeftShoulder1  7.64326 -11.5449 -44.2199
LeftArm  -8.99809 33.4649 -26.8761
LeftForeArm  34.5545 -10.4889 -4.71929
LeftHand  -0.25398 0.0180481 5.50724
RightShoulder  5.32261 9.25069 35.7559
RightArm  13.6796 -17.1156 35.6127
RightForeArm  145.316 75.0649 139.588
RightHand  -2.25649 6.92329 -21.4449
LeftUpLeg  -20.5586 13.7214 -10.5717
LeftLeg  17.0881 0.234374 0.471176
LeftFoot  7.84443 -1.00041 5.6573
LeftToes  1.06246e-005 4.65856e-005 -8.18502e-006
147
root  19.1955 38.0643 -7.15591 45.932 79.778 52.1381
RightUpLeg  14.0288 -4.04375 -15.42
RightLeg  43.4151 2.97223 2.68202
RightFoot  1.41294 -1.12906 10.4937
RightToes  0.00048216 0.542163 -0.142577
Spine  8.87487 3.50758 0.476341
Spine1  7.82532 5.76158 -7.27965
HEad  -10.5586 -4.41316 2.22129
LeftShoulder1  7.66405 -11.5759 -44.2507
LeftArm  -9.66167 32.6976 -26.5267
LeftForeArm  33.8767 -9.13686 -4.59078
LeftHand  -0.25398 0.0180481 5.50724
RightShoulder  5.34249 9.24283 35.9336
RightArm  12.0409 -19.412 37.7768
RightForeArm  144.223 75.6885 137.565
RightHand  -2.24689 6.96771 -21.2849
LeftUpLeg  -19.2695 14.3914 -12.233
LeftLeg  20.4716 1.4289 0.945675
LeftFoot  3.90834 -0.853932 6.18232
LeftToes  1.06246e-005 4.65856e-005 -8.18502e-006
148
root  20.6947 38.1632 -7.23968 46.379 77.6892 52.6283
RightUpLeg  6.31332 -1.12071 -16.1972
RightLeg  54.4504 0.585133 0.481667
RightFoot  11.7183 -1.45043 7.45288
RightToes  0.00048216 0.542163 -0.142577
Spine  9.47933 3.38382 -1.53415
Spine1  7.5614 5.4414 -7.80365
HEad  -10.2057 -3.48411 1.8183
LeftShoulder1  7.71142 -11.642 -44.3341
LeftArm  -10.1971 31.3517 -26.4347
LeftForeArm  33.3316 -9.20732 -4.45123
LeftHand  -0.25398 0.0180481 5.50724
RightShoulder  5.32032 9.22794 35.8113
RightArm  10.7783 -20.3596 39.927
RightForeArm  141.778 76.033 135.967
RightHand  -2.29838 7.04588 -21.6207
LeftUpLeg  -17.3068 15.5316 -13.6979
LeftLeg  21.8488 2.36986 1.38944
LeftFoot  0.00126211 -0.606736 6.09901
LeftToes  1.06246e-005 4.65856e-005 -8.18502e-006
149
root  22.149 38.3821 -7.30842 43.3599 76.1295 49.9943
RightUpLeg  -0.812393 1.25439 -16.1424
RightLeg  62.8038 -0.659145 -1.92487
RightFoot  14.0498 -0.996077 4.799
RightToes  0.00048216 0.542163 -0.142577
Spine  10.298 3.06495 -2.91972
Spine1  7.4761 4.78205 -7.57232
HEad  -10.418 -1.78728 0.912019
LeftShoulder1  7.77131 -11.6781 -44.5835
LeftArm  -10.3104 29.6251 -26.413
LeftForeArm  32.9665 -10.6652 -4.4334
LeftHand  -0.25398 0.0180481 5.50724
RightShoulder  5.2879 9.21595 35.6004
RightArm  10.4996 -19.9616 41.2254
RightForeArm  139.319 76.1066 135.19
RightHand  -2.37348 7.11965 -22.1749
LeftUpLeg  -14.2119 17.0507 -13.994
LeftLeg  21.4438 1.91564 1.12674
LeftFoot  -2.15212 -0.446665 5.71492
LeftToes  1.06246e-005 4.65856e-005 -8.18502e-006
